<svg xmlns="http://www.w3.org/2000/svg" width="517.454" height="331.742" viewBox="0 0 517.454 331.742"><defs><style>.a,.q{fill:#95be5d;}.a,.ab,.ac,.ad,.ae,.af,.ag,.ah,.ai,.aj,.ak,.b,.d,.e,.g,.k,.l,.n,.o,.p,.q,.r,.s,.t,.u,.v,.x,.y,.z{fill-rule:evenodd;}.a{opacity:0.15;}.aa,.ab,.ag,.ai,.aj,.b,.c,.d,.s,.t,.v,.w,.x{fill:none;}.b{stroke:#089a9b;stroke-miterlimit:10;}.ac,.c,.d,.l{stroke:#fff;}.aa,.ab,.ac,.ae,.af,.ag,.ai,.aj,.ak,.c,.d,.l,.o,.s,.t,.v,.w,.x,.z{stroke-miterlimit:22.926;}.aa,.ab,.ac,.ae,.ai,.ak,.c,.d,.l,.o,.s,.t,.w,.x,.z{stroke-width:0.567px;}.e,.f,.l,.o,.z{fill:#fff;}.g,.h{fill:#089a9b;}.i,.n{fill:#2f2e6b;}.ae,.j,.k{fill:#231f20;}.m{fill:#b5e1e1;}.aa,.af,.ag,.ai,.o,.t,.v{stroke:#231f20;}.ak,.p{fill:#f2d291;}.r{fill:#e0bd89;}.aj,.s{stroke:#2f2e6b;}.af,.u{fill:#c3714e;}.aj,.v{stroke-width:0.425px;}.ab,.ak,.w,.z{stroke:#939598;}.ae,.x{stroke:#58595b;}.ac,.y{fill:#939598;}.ad{fill:#edba68;}.ah{fill:#f66f82;}.ai{stroke-linecap:round;}</style></defs><g transform="translate(-8.595 -235.754)"><g transform="translate(9.088 236.18)"><path class="a" d="M297.8,348.909c40.615,61.194,23.688,118.714-19.841,147.14-31.635,20.658-70.89,1.339-101.868,24.5S86.719,563.079,43.48,530.98c-53.29-39.56-2.105-86.554-6.838-126.312S-8.477,294.8,31.634,256.768c38.476-36.484,88.078,33.387,142.221,41.2S259.67,291.454,297.8,348.909Z" transform="translate(-9.615 -237.255)"/><path class="b" d="M307.639,344.152c42.733,64.384,24.923,124.9-20.874,154.811-33.284,21.735-74.586,1.408-107.179,25.782s-94.036,44.743-139.529,10.97c-56.069-41.623-2.215-91.067-7.195-132.9s-47.471-115.594-5.269-155.612c40.481-38.387,92.669,35.128,149.636,43.349S267.518,283.7,307.639,344.152Z" transform="translate(-9.088 -236.18)"/><g transform="translate(8.513 62.018)"><g transform="translate(17.941 34.514)"><rect class="c" width="42.416" height="28.639"/><rect class="c" width="27.023" height="1.844" transform="translate(7.696 11.307)"/></g><g transform="translate(0 34.514)"><path class="d" d="M18.614,344.2H36.555v28.639H26.443C23.659,363.555,20.834,353.892,18.614,344.2Z" transform="translate(-18.614 -344.202)"/><path class="d" d="M21.787,356.854H29.2V358.7H22.288Q22.035,357.778,21.787,356.854Z" transform="translate(-18.951 -345.548)"/></g><g transform="translate(17.941 63.153)"><rect class="c" width="42.416" height="28.64"/><rect class="c" width="27.023" height="1.844" transform="translate(7.696 11.307)"/></g><path class="d" d="M27.374,376.25H37.486v28.639H35.492C33.405,396.1,30.418,386.4,27.374,376.25Z" transform="translate(-19.546 -313.097)"/><g transform="translate(17.941 91.793)"><path class="d" d="M81.106,408.3H38.69v9.968c.152.984.291,1.956.4,2.906a53.6,53.6,0,0,1-.4,14.362v1.4H81.106Z" transform="translate(-38.69 -408.298)"/><rect class="c" width="27.023" height="1.845" transform="translate(7.696 11.307)"/></g><path class="d" d="M36.458,408.3h1.995v9.968c-.491-3.163-1.171-6.493-1.995-9.968Zm1.995,27.235v1.4h-.224C38.309,436.469,38.382,436,38.453,435.533Z" transform="translate(-20.512 -316.505)"/><g transform="translate(1.105)"><path class="d" d="M21.1,314.574c-1.938.889-1.187,2.743-.576,3.481s1.317.786,1.713,1.648-1.226,2.822-.271,4.905,3.67,2.318,4.244,3.011a.8.8,0,0,1,.162.293c.415-.968,1.13-1.916,1.13-2.977,0-1.5-3.289-3.811-3.289-6.2a8.167,8.167,0,0,1,.635-3.095,3.069,3.069,0,0,0-3.749-1.063Zm4.984,14.449a.676.676,0,0,0,.006.4q-.008-.146-.008-.3C26.078,329.088,26.079,329.056,26.08,329.024Z" transform="translate(-19.851 -306.511)"/><path class="d" d="M28.845,331.4c-1.794-.822-2.317-1.794-2.317-3.214s1.42-2.69,1.42-4.185-3.289-3.811-3.289-6.2.971-3.139.971-4.784-2.766-4.858-.9-6.726,4.087.418,4.709,1.5.672,2.989,1.569,3.886,2.371.524,3.364,2.242,1.046,3.961,2.316,5.231,3.432,1.436,4.933,4.037-.374,7.4-1.345,8S28.845,331.4,28.845,331.4Z" transform="translate(-20.301 -305.58)"/><path class="d" d="M27.775,334.477H41.922L39.2,342.969H30.5Z" transform="translate(-20.694 -308.654)"/><path class="d" d="M41.434,336.411l-.646,2.018H29.042l-.646-2.018Z" transform="translate(-20.76 -308.859)"/><path class="e" d="M35.681,332.063c-.008-.036-2.743-12.546-7.654-20.473l.341-.211c4.947,7.986,7.7,20.562,7.7,20.6Z" transform="translate(-20.72 -306.197)"/><path class="e" d="M27.459,319.156a12.147,12.147,0,0,1,5.24,2.566l-.256.31a11.69,11.69,0,0,0-5.048-2.48Z" transform="translate(-20.653 -307.024)"/><path class="e" d="M35.35,329.142a16.889,16.889,0,0,1,1.14-3.835l.33.228a16.77,16.77,0,0,0-1.076,3.68Z" transform="translate(-21.499 -307.678)"/></g><g transform="translate(0.749 120.433)"><path class="d" d="M23.772,515.99H80.44V443.174H35.948c-4.763,23.544-19.738,48.7-15.858,72.816Z" transform="translate(-19.453 -440.648)"/><path class="d" d="M75.572,510.691H19.5c-.89-20.8,10.365-42.215,15.445-62.565H76.075v62.565Z" transform="translate(-19.452 -441.174)"/><rect class="f" width="2.214" height="23.583" transform="translate(49.823 26.443)"/><path class="d" d="M38.383,440.347H87.521a.486.486,0,0,1,.485.484v1.557a.486.486,0,0,1-.485.485H37.911Q38.167,441.607,38.383,440.347Z" transform="translate(-21.416 -440.347)"/><path class="d" d="M82.232,524.657h4.831v4.456h-5.35v-4.456Z" transform="translate(-26.074 -449.314)"/></g></g><path class="g" d="M163.992,440.628H145.357a12.281,12.281,0,0,1-12.246-12.247v-6.6h2.721v6.6a9.556,9.556,0,0,0,9.525,9.525h18.635Z" transform="translate(-22.279 -255.921)"/><rect class="h" width="0.931" height="45.458" transform="translate(107.59 167.306)"/><rect class="h" width="0.931" height="44.481" transform="translate(114.48 167.306)"/><rect class="f" width="12.876" height="7.535" rx="1.039" transform="translate(145.881 150.984)"/><path class="g" d="M172.332,409.275h12.876v2.907a.926.926,0,0,1-.089.4h-12.7a.927.927,0,0,1-.09-.4Z" transform="translate(-26.451 -254.591)"/><rect class="h" width="15.958" height="10.71" transform="translate(143.439 166.095)"/><path class="e" d="M171.99,411.028h11.09a1.366,1.366,0,0,1,1.361,1.361v8.326a1.365,1.365,0,0,1-1.361,1.36H151.343a1.364,1.364,0,0,1-1.36-1.36v-6.57a1.365,1.365,0,0,1,1.36-1.361h13.564a6.313,6.313,0,0,0,3.43-.789C169.882,410.984,169.03,411.028,171.99,411.028Z" transform="translate(-24.074 -254.777)"/><path class="g" d="M143.843,403.087h25.678a8.731,8.731,0,0,1-8.706,8.707h-8.266a8.732,8.732,0,0,1-8.706-8.707Z" transform="translate(-23.421 -253.933)"/><path class="g" d="M182.056,403.527v-6.072l.005-.015c0-.013.279-4.914-5.2-5.38v.137a.545.545,0,0,1-.543.544H175.29a.545.545,0,0,1-.544-.544v-1.63a.545.545,0,0,1,.544-.544h1.029a.552.552,0,0,1,.122.013c8.282.327,8.333,7.06,8.33,7.419h.005v6.1a.928.928,0,0,0-.24-.032Z" transform="translate(-26.708 -252.543)"/><path class="g" d="M171.223,397.934h1.06a3.75,3.75,0,0,1,3.742,3.742v2.6l0,.1h-2.047a.571.571,0,0,0,.008-.1v-2.6a1.707,1.707,0,0,0-1.7-1.7h-1.06a.616.616,0,0,0-.612.612v1.952H168.57v-1.952a2.659,2.659,0,0,1,2.653-2.653Z" transform="translate(-26.051 -253.385)"/><path class="e" d="M193.035,416.64H211.98a2.46,2.46,0,0,1,2.453,2.453v95.15a2.46,2.46,0,0,1-2.453,2.454H169.144a3.266,3.266,0,0,1-3.256-3.256V434C165.888,433.693,190.921,416.64,193.035,416.64Z" transform="translate(-25.765 -255.374)"/><rect class="h" width="15.775" height="5.308" rx="1.218" transform="translate(104.169 160.549)"/><path class="i" d="M.2,0h.84a.2.2,0,0,1,.2.2V3.844a.2.2,0,0,1-.2.2H.2a.2.2,0,0,1-.2-.2V.2A.2.2,0,0,1,.2,0Z" transform="translate(106.765 154.396) rotate(-2.966)"/><rect class="i" width="2.063" height="1.815" rx="0.292" transform="translate(106.953 166.035) rotate(-2.958)"/><g transform="translate(105.52 147.663)"><rect class="j" width="2.558" height="10.313" rx="0.411" transform="translate(0.709 9.156) rotate(-2.962)"/><path class="k" d="M129.283,408.3a.271.271,0,1,1-.54.051l-.525-5.512a1.807,1.807,0,0,0-.044-.255h0a1.106,1.106,0,0,0-.242-.487.416.416,0,0,0-.346-.138.463.463,0,0,0-.082.015.272.272,0,0,1-.132-.527,1.082,1.082,0,0,1,.163-.028.937.937,0,0,1,.789.3,1.647,1.647,0,0,1,.378.732h0a2.508,2.508,0,0,1,.056.334Z" transform="translate(-127.167 -401.419)"/></g><g transform="translate(112.165 147.663)"><path class="k" d="M137.574,420.646a.271.271,0,1,1-.54.051l-1.38-17.854a1.683,1.683,0,0,0-.043-.255h0a1.088,1.088,0,0,0-.242-.487.413.413,0,0,0-.346-.138.494.494,0,0,0-.082.015.272.272,0,1,1-.131-.527,1.064,1.064,0,0,1,.163-.028.935.935,0,0,1,.788.3,1.629,1.629,0,0,1,.378.732h0a2.251,2.251,0,0,1,.056.334Z" transform="translate(-134.603 -401.419)"/><rect class="j" width="1.238" height="4.043" rx="0.199" transform="translate(1.84 15.684) rotate(-5.007)"/></g><g transform="translate(195.793 75.032)"><rect class="c" width="64.795" height="64.795" transform="translate(3.596 1.125)"/><path class="d" d="M265.65,346.993c.315.112.57,0,1.07-.211a14.38,14.38,0,0,1,2.525-.846,5.6,5.6,0,0,1,.827-.134,7.4,7.4,0,0,1,3.972.812,4.81,4.81,0,0,1,2.577,3.054,4.012,4.012,0,0,1,.1.6,38.421,38.421,0,0,1-.02,7.143,10.79,10.79,0,0,1-1.331,4.57,10.777,10.777,0,0,0-1.429,3.146,4.954,4.954,0,0,0-.18,2.6c.046.114.116.276.2.479.642,1.471,2.164,4.959,1.743,7.348a2.831,2.831,0,0,1-.631,1.506,1.011,1.011,0,0,1-.76.327,1.238,1.238,0,0,1-.724-.275,3.107,3.107,0,0,1-.949-1.447,13.456,13.456,0,0,0-1.775-3.277,5.879,5.879,0,0,0-1.942-1.879,1.02,1.02,0,0,0-.8-.023,15.543,15.543,0,0,1-2.039,8.855,1.512,1.512,0,0,1-.755.742,1.012,1.012,0,0,1-.713.016,1.274,1.274,0,0,1-.559-.4,2.158,2.158,0,0,1-.449-1.376,23.069,23.069,0,0,0-.567-4.8,7.518,7.518,0,0,0-1.172-2.793,2.734,2.734,0,0,1-.187.271,7.677,7.677,0,0,0-.753,1.25,28.186,28.186,0,0,0-1.174,2.735c-.039.11-.08.223-.122.347-.056.161-.118.338-.181.51-.47,1.294-1.206,2.919-2.34,2.508-.662-.241-1.1-1.34-1.253-2.7a11.686,11.686,0,0,1,.257-4.117c.266-.988.561-1.785.818-2.479a7.365,7.365,0,0,0,.633-2.448,12.714,12.714,0,0,0-.866-3.037,21.013,21.013,0,0,1-1.145-3.961,37.7,37.7,0,0,1,.247-8.333c.318-2.076.886-3.883,1.842-4.6,2.292-1.712,4.079-1.076,7.613.182Z" transform="translate(-231.083 -322.854)"/><rect class="c" width="68.768" height="2.95" transform="translate(1.61 1.124)"/><path class="d" d="M229.021,320.143h0a.838.838,0,0,1,.836.836v3.528a.838.838,0,0,1-.836.836h0a.837.837,0,0,1-.836-.836v-3.528A.837.837,0,0,1,229.021,320.143Z" transform="translate(-228.185 -320.143)"/><path class="l" d="M307.567,320.143h0a.838.838,0,0,1,.836.836v3.528a.838.838,0,0,1-.836.836h0a.837.837,0,0,1-.835-.836v-3.528A.837.837,0,0,1,307.567,320.143Z" transform="translate(-236.54 -320.143)"/><path class="e" d="M273.558,348.234l5.723-6.541.074-.085h18.353v.5h-18.13l-5.649,6.455Z" transform="translate(-233.011 -322.426)"/><g transform="translate(46.258 12.315)"><rect class="f" width="15.002" height="0.567" transform="translate(3.106)"/><ellipse class="f" cx="10.606" cy="0.401" rx="10.606" ry="0.401" transform="translate(0.001 1.127)"/><ellipse class="f" cx="10.607" cy="0.401" rx="10.607" ry="0.401" transform="translate(0 2.372)"/><ellipse class="f" cx="10.607" cy="0.401" rx="10.607" ry="0.401" transform="translate(0 3.617)"/><rect class="f" width="15.002" height="0.567" transform="translate(3.106 4.98)"/></g><path class="e" d="M257.781,353.6l-5.649-6.456H235.074v-.495h17.28l.074.085,5.723,6.541Z" transform="translate(-228.918 -322.962)"/><g transform="translate(4.9 16.911)"><rect class="f" width="15.002" height="0.567" transform="translate(3.106)"/><ellipse class="f" cx="10.607" cy="0.401" rx="10.607" ry="0.401" transform="translate(0 1.128)"/><ellipse class="f" cx="10.606" cy="0.401" rx="10.606" ry="0.401" transform="translate(0.001 2.372)"/><ellipse class="f" cx="10.606" cy="0.401" rx="10.606" ry="0.401" transform="translate(0.001 3.617)"/><rect class="f" width="15.002" height="0.567" transform="translate(3.106 4.98)"/></g><rect class="c" width="34.476" height="3.256" transform="translate(6.755 8.983)"/><path class="e" d="M273.929,362.541,279.578,369h18.13v.5H279.355l-.074-.085-5.723-6.541Z" transform="translate(-233.011 -324.653)"/><g transform="translate(46.258 37.23)"><rect class="f" width="15.002" height="0.567" transform="translate(3.106)"/><path class="e" d="M283.424,363.2h15v.567h-15Z" transform="translate(-280.318 -361.953)"/><path class="e" d="M283.424,364.591h15v.567h-15Z" transform="translate(-280.318 -362.101)"/><ellipse class="f" cx="10.607" cy="0.401" rx="10.607" ry="0.401" transform="translate(0 3.617)"/><rect class="f" width="15.002" height="0.567" transform="translate(3.106 4.98)"/></g><path class="e" d="M281.2,335.263a.67.67,0,1,0-.671-.67A.671.671,0,0,0,281.2,335.263Z" transform="translate(-233.752 -321.609)"/><path class="e" d="M281.2,363.145a.671.671,0,1,0-.671-.67A.672.672,0,0,0,281.2,363.145Z" transform="translate(-233.752 -324.574)"/><path class="e" d="M235.389,340.407a.67.67,0,1,0-.67-.67A.672.672,0,0,0,235.389,340.407Z" transform="translate(-228.88 -322.156)"/></g><path class="e" d="M205.132,406.4V333.935a7.585,7.585,0,0,0-7.554-7.554H161.9v-6.043h35.676a13.628,13.628,0,0,1,13.6,13.6V406.4Z" transform="translate(-25.342 -245.131)"/><path class="g" d="M231.617,415.159v13.463a7.585,7.585,0,0,1-7.554,7.555h-3.852v6.043h3.852a13.631,13.631,0,0,0,13.6-13.6V415.159Z" transform="translate(-31.543 -255.217)"/><rect class="h" width="26.07" height="35.958" rx="2.23" transform="translate(158.821 168.868)"/><path class="e" d="M153.274,321.675l-49.789-31.919c-1.768-.347-7.9-1.2-7.9,3.625H89.546c0-13.4,15.783-9.388,15.828-9.377l.5.122.416.267L156.532,316.6Z" transform="translate(-17.645 -241.206)"/><path class="g" d="M163.442,329.117a5.679,5.679,0,1,0-5.678-5.678A5.689,5.689,0,0,0,163.442,329.117Z" transform="translate(-24.901 -244.857)"/><circle class="f" cx="2.889" cy="2.889" r="2.889" transform="translate(135.651 75.692)"/><path class="e" d="M70.676,303.062h37.555a5.258,5.258,0,0,1,3.725,1.547v.006a5.252,5.252,0,0,1,1.548,3.718v16.3a5.254,5.254,0,0,1-1.548,3.719v.006a5.258,5.258,0,0,1-3.725,1.547H70.676a5.258,5.258,0,0,1-3.725-1.547v-.006a5.254,5.254,0,0,1-1.548-3.719v-16.3a5.252,5.252,0,0,1,1.548-3.718v-.006a5.258,5.258,0,0,1,3.725-1.547Zm37.555,3.255H70.676a2.011,2.011,0,0,0-1.424.594l0,0a2.018,2.018,0,0,0-.591,1.426v16.3a2.019,2.019,0,0,0,.591,1.427l0,0a2.011,2.011,0,0,0,1.424.594h37.555a2.011,2.011,0,0,0,1.424-.594l0,0a2.019,2.019,0,0,0,.591-1.427v-16.3a2.018,2.018,0,0,0-.591-1.426l0,0A2.011,2.011,0,0,0,108.232,306.317Z" transform="translate(-15.078 -243.294)"/><circle class="h" cx="17.321" cy="17.321" r="17.321" transform="translate(53.545 72.761) rotate(-13.259)"/><circle class="f" cx="14.592" cy="14.592" r="14.592" transform="translate(59.785 71.055)"/><circle class="m" cx="6.525" cy="6.525" r="6.525" transform="translate(67.852 79.123)"/><path class="h" d="M1.69,0H6.254A1.691,1.691,0,0,1,7.945,1.691V20.872a1.691,1.691,0,0,1-1.691,1.691H1.691A1.691,1.691,0,0,1,0,20.873V1.69A1.69,1.69,0,0,1,1.69,0Z" transform="translate(70.404 41.557)"/><rect class="f" width="7.983" height="25.673" rx="0.683" transform="translate(186.393 171.562)"/><path class="g" d="M224.114,423.151l6.356,2.31,4.465-2.31H253a1.181,1.181,0,0,0,1.219-1.218l-.887-8.3,6.127-3.171-7.446-2.733-.025-.01a1.221,1.221,0,0,0-.384-.073l-20.172-.593c-.668-.02-.9.631-1.219,1.219l-7.078,13.221C222.742,422.219,223.468,422.916,224.114,423.151Z" transform="translate(-31.842 -254.355)"/><path class="e" d="M232.239,426.121H261.12a1.182,1.182,0,0,0,1.219-1.219l-1.4-13.068a1.29,1.29,0,0,0-1.219-1.218l-20.172-.593c-.668-.021-.9.63-1.219,1.219L231.02,424.9C230.7,425.492,231.569,426.121,232.239,426.121Z" transform="translate(-32.686 -254.671)"/><path class="g" d="M264.535,426.74V501a8.582,8.582,0,0,1-17.163,0V430.611h1.51V501a7.071,7.071,0,0,0,14.142,0V426.74Z" transform="translate(-34.432 -256.449)"/><path class="g" d="M270.754,427.776v74.258a8.582,8.582,0,0,1-17.163,0V431.672H255.1v70.361a7.071,7.071,0,0,0,14.142,0V427.776Z" transform="translate(-35.094 -256.559)"/><path class="g" d="M251.233,413.227a1.479,1.479,0,0,0-.562-.01L238.952,415.2c-.66.111-.739.86-.8,1.525l-.873,9.064c-.071.743.8,1.221,1.462,1.357l25.327,5.519,13.821-13.691Z" transform="translate(-33.358 -255.008)"/><path class="e" d="M241.388,416.039a.752.752,0,0,1-.295,1.475l-1-.2a.752.752,0,0,1,.295-1.475Z" transform="translate(-33.593 -255.287)"/><path class="e" d="M264.341,420.65a.752.752,0,0,1-.295,1.475l-20.336-4.085a.752.752,0,0,1,.295-1.475Z" transform="translate(-33.979 -255.365)"/><g transform="translate(217.202 160.989)"><path class="j" d="M.456,0H2.384A.456.456,0,0,1,2.84.456V10.994a.457.457,0,0,1-.457.457H.456A.456.456,0,0,1,0,10.994V.456A.456.456,0,0,1,.456,0Z" transform="translate(0 2.762) rotate(-2.955)"/><rect class="j" width="1.374" height="4.489" rx="0.221" transform="translate(0.594 0.071) rotate(-2.965)"/><path class="j" d="M.324,0H1.966A.324.324,0,0,1,2.29.324V1.692a.324.324,0,0,1-.324.324H.323A.323.323,0,0,1,0,1.692V.324A.324.324,0,0,1,.324,0Z" transform="translate(0.803 12.994) rotate(-2.963)"/></g><g transform="translate(222.79 162.547)"><rect class="j" width="2.84" height="11.451" rx="0.456" transform="translate(0 2.761) rotate(-2.956)"/><rect class="j" width="1.374" height="4.489" rx="0.221" transform="matrix(0.999, -0.052, 0.052, 0.999, 0.595, 0.071)"/><rect class="j" width="2.29" height="2.015" rx="0.324" transform="translate(0.804 12.993) rotate(-2.951)"/></g><g transform="translate(211.644 160.064)"><path class="j" d="M.456,0H2.383A.456.456,0,0,1,2.84.456V10.994a.457.457,0,0,1-.457.457H.456A.456.456,0,0,1,0,10.994V.456A.456.456,0,0,1,.456,0Z" transform="translate(0 2.762) rotate(-2.956)"/><rect class="j" width="1.374" height="4.489" rx="0.221" transform="matrix(0.999, -0.052, 0.052, 0.999, 0.594, 0.071)"/><rect class="j" width="2.29" height="2.015" rx="0.324" transform="translate(0.804 12.994) rotate(-2.963)"/></g><path class="g" d="M277.008,429.518v74.258a8.582,8.582,0,0,1-17.163,0V434.1h1.51v69.672a7.071,7.071,0,0,0,14.142,0V429.518Z" transform="translate(-35.759 -256.744)"/><path class="e" d="M268.447,433.54l15.916-4.938a1.164,1.164,0,0,0,.8-1.525l-3.269-6.658a1.387,1.387,0,0,0-1.525-.8L268.652,421.6c-.66.112-.739.86-.8,1.525l-.928,9.615C266.858,433.4,267.807,433.739,268.447,433.54Z" transform="translate(-36.511 -255.688)"/><path class="n" d="M111.409,480.343l3.478,4.294-1.186.926-3.478-4.294Z" transform="translate(-19.845 -262.15)"/><rect class="j" width="14.709" height="8.679" rx="2.128" transform="translate(91.799 221.686)"/><path class="k" d="M145.148,472.324l49.167,37.214-21.546,22.646L126.4,497.09Z" transform="translate(-21.566 -261.297)"/><path class="k" d="M171.3,538.076H106.456c-1.229-.347-3.429-1.686-2.322-2.322l63.4-11.935c3.2-.983,6.094,2.743,6.094,6.095v5.841A2.433,2.433,0,0,1,171.3,538.076Z" transform="translate(-19.165 -266.757)"/><path class="g" d="M126.647,479.563h52.113c1.5,0,3.121,1.278,2.719,2.719-.685,2.465-9.067,32.909-54.833,35.878a2.669,2.669,0,0,1-2.719-2.719V482.282A2.727,2.727,0,0,1,126.647,479.563Z" transform="translate(-21.302 -262.067)"/><path class="k" d="M146.289,481.744h28.833l6.079,1.716a39,39,0,0,1-2.991,6.917c-7.326,2.8-20.064,6.645-49.764,15.758a4.3,4.3,0,0,1-4.518-1.586V484.443l0-.111a3.184,3.184,0,0,1,.587-.122Z" transform="translate(-21.302 -262.299)"/><path class="g" d="M214.571,536.271H167.824c-7.442,0-3.82-4.475-3-5.738,6.433-9.876,20.41-23.068,49.744-24.97a2.669,2.669,0,0,1,2.72,2.719v25.269A2.729,2.729,0,0,1,214.571,536.271Z" transform="translate(-25.482 -264.832)"/><path class="g" d="M124.3,480.87l42.346-4.8,18.326,4.416c1.292.311,2.239,2.136,1.087,2.8-7.079,4.062-13.916,6.033-57.83,19.507-3.337,1.024-6.346-2.855-6.346-6.345V483.287A2.534,2.534,0,0,1,124.3,480.87Z" transform="translate(-21.085 -261.696)"/><path class="k" d="M124.3,480.87l42.346-4.8,18.326,4.416c1.248.3,2.173,2.012,1.2,2.724l-17.208-2.056h0l-47.077,4.528v-2.4A2.534,2.534,0,0,1,124.3,480.87Z" transform="translate(-21.085 -261.696)"/><path class="h" d="M1.014,0H3.123A1.014,1.014,0,0,1,4.137,1.014V67.245a1.014,1.014,0,0,1-1.014,1.014H1.015A1.015,1.015,0,0,1,0,67.245V1.014A1.014,1.014,0,0,1,1.014,0Z" transform="matrix(0.738, -0.674, 0.674, 0.738, 44.065, 170.448)"/><path class="o" d="M65.558,419.852h0a4.805,4.805,0,0,1,6.888.313L110.1,461.884c1.8,1.99,2.084,5.69-.313,6.889h0c-2.4,1.2-5.092,1.678-6.888-.313L65.245,426.741A4.9,4.9,0,0,1,65.558,419.852Z" transform="translate(-14.926 -255.577)"/><path class="k" d="M58.838,423.813l-5.471-5.4-.227-.224V405.822h5.021v1.511H54.65v10.229l5.244,5.178Z" transform="translate(-13.773 -254.224)"/><rect class="j" width="2.414" height="11.011" rx="0.592" transform="translate(41.315 144.936) rotate(-10.656)"/><rect class="j" width="4.757" height="21.7" rx="1.166" transform="translate(42.471 139.291) rotate(-10.66)"/><path class="o" d="M113.637,478.062h0c0-2.869,1.8-5.449,4.656-5.724l48.551-4.67a5.408,5.408,0,0,1,.991-.006,5.208,5.208,0,0,1,1.149.006l73.457,8.781a5.48,5.48,0,0,1,4.656,5.724h0c0,2.869-2.875,5-5.725,4.656l-73.457-8.781h0l-48.55,4.67C116.506,482.992,113.637,480.931,113.637,478.062Z" transform="translate(-20.208 -260.798)"/><path class="o" d="M65.468,410.184a7.048,7.048,0,0,0,6.464,2.424c2.559-.223,3.639-2.2,2.707-5.9s-6.849-13.369-8.574-14.841-4.3-1.356-4.008.2S65.468,410.184,65.468,410.184Z" transform="translate(-14.719 -252.629)"/></g><g transform="translate(382.985 255.255)"><path class="k" d="M445.662,399.848l-1.293,35.813,6.183,140.4,22.622,1.459-1.213-145.962-3.493-31.709Z" transform="translate(-429.283 -272.663)"/><path class="k" d="M444.737,447.955l1.549,35.159,26.074-3.592-.284-34.157Z" transform="translate(-429.322 -277.504)"/><path class="k" d="M507.577,400.987l2.99,26.494,4,149.118-20.02.572L479.22,400.264Z" transform="translate(-432.989 -272.707)"/><path class="k" d="M511.237,441.645l.873,32.566-26.145,3.6-2.9-33.5Z" transform="translate(-433.398 -277.109)"/><path class="k" d="M509.037,453.787l-65.658.927,3.354-99.079-2.177-38.026c8.08-4.5,18.254-6.875,29.766-6.875s21.685,2.374,29.766,6.875l-1.732,38.026Z" transform="translate(-429.177 -263.185)"/><path class="p" d="M467.408,308.928l9.232,22.8,9.708-22.8-1.772-20.371H469.183Z" transform="translate(-431.733 -260.826)"/><path class="e" d="M471.79,322.174l5.316,13.128,5.59-13.128Z" transform="translate(-432.199 -264.401)"/><path class="q" d="M447.77,604.612c-.127-.948-.534-2.979.593-3.656.822-.494,4.1-.26,4.609-.417.617-.193,3.617-4.632,4.215-5.451h6.576l3.319,3.046.868,6.478Z" transform="translate(-429.626 -293.429)"/><path class="q" d="M524.109,604.612c-.038-.948.014-2.979-1.231-3.656-.909-.494-1.481-.26-2.013-.417-.651-.193-4.425-4.632-5.167-5.451h-6.576l-2.787,3.046.264,6.478Z" transform="translate(-435.873 -293.429)"/><path class="r" d="M510.751,318.427c7.9,2.483,14.532,50.127,14.532,67.465s-2.419,47.582-2.419,47.582h-6.769s-3.895-38.992-5.1-46.653-4.97-31.87-4.97-31.87S505.912,329.314,510.751,318.427Z" transform="translate(-435.84 -264.003)"/><path class="k" d="M510.751,318.427c5.876,1.847,13.112,26.616,15.378,47.379L507.4,367.867c-1.081-6.948-1.374-12.917-1.374-12.917S505.912,329.314,510.751,318.427Z" transform="translate(-435.84 -264.003)"/><g transform="translate(76.121 169.47)"><path class="p" d="M516.8,447.167c-.563,1.912-2.376,5.748-2.7,7.3-.1.507-.143,1.511-.335,3.97a42.2,42.2,0,0,1-1.1,4.967,1.82,1.82,0,0,0,1.61-.644,9.791,9.791,0,0,0,1.658-3.5c.148-1.082.246-2.782.376-3.157.543,1.4.927,2.839.927,2.839-.261,1.524-.788,3.445-1.015,4.561a24.569,24.569,0,0,0-1.488,2.236,4.315,4.315,0,0,0-1.492,1.685,3.7,3.7,0,0,0,1.272.49.751.751,0,0,0-.163.608l2.073-.188,1.793-1.014.872-.037,3.36-2.688,1.548-1.52.458-5.054s-.868-7.441-.873-8.545c0-.278-.006-1.142-.013-2.308Z" transform="translate(-512.668 -447.166)"/><path class="s" d="M514.736,469.428l.985-.284,3.095-3.222.877-4.509" transform="translate(-512.888 -448.681)"/><path class="s" d="M519.2,469.048l2.176-2.434.851-4.074" transform="translate(-513.362 -448.801)"/></g><path class="r" d="M442.966,318.427c-7.9,2.483-14.533,50.127-14.533,67.465s2.419,47.582,2.419,47.582h6.769s3.894-38.992,5.1-46.653,4.97-31.87,4.97-31.87S447.8,329.314,442.966,318.427Z" transform="translate(-427.588 -264.003)"/><path class="k" d="M442.866,318.427c-5.877,1.847-13.113,26.616-15.379,47.379l18.733,2.062c1.081-6.948,1.374-12.917,1.374-12.917S447.7,329.314,442.866,318.427Z" transform="translate(-427.487 -264.003)"/><g transform="translate(2.378 169.47)"><path class="r" d="M437.8,447.167c.563,1.912,2.377,5.748,2.7,7.3.1.507.143,1.511.335,3.97a42.206,42.206,0,0,0,1.1,4.967,1.82,1.82,0,0,1-1.61-.644,9.776,9.776,0,0,1-1.657-3.5c-.149-1.082-.247-2.782-.377-3.157-.543,1.4-.927,2.839-.927,2.839.261,1.524.788,3.445,1.015,4.561a24.573,24.573,0,0,1,1.488,2.236,4.315,4.315,0,0,1,1.491,1.685,3.694,3.694,0,0,1-1.272.49.747.747,0,0,1,.163.608l-2.073-.188-1.793-1.014-.871-.037-3.361-2.688-1.548-1.52-.458-5.054s.868-7.441.873-8.545c0-.278.006-1.142.013-2.308Z" transform="translate(-430.148 -447.166)"/><path class="d" d="M440.684,469.428l-.985-.284-3.095-3.222-.877-4.509" transform="translate(-430.741 -448.681)"/><path class="d" d="M436.452,469.048l-2.176-2.434-.851-4.074" transform="translate(-430.497 -448.801)"/></g><path class="p" d="M474.632,259.3c3.306.164,13.262.769,13.11,13.688s-2.236,17.1-3.854,18.991c-2.071,2.419-5.379,5.067-13.431,5.922-4.68-.378-5.388-3.2-6.791-5.985-1.119-2.222-3.319-6.7-2.819-19.609S471.322,259.294,474.632,259.3Z" transform="translate(-431.027 -257.714)"/><path class="k" d="M476.242,280.266a1.365,1.365,0,0,0-1.231,1.386,1.233,1.233,0,0,0,1.061,1.426,1.366,1.366,0,0,0,1.231-1.386A1.233,1.233,0,0,0,476.242,280.266Z" transform="translate(-432.542 -259.944)"/><path class="k" d="M464.577,280.265a1.367,1.367,0,0,1,1.159,1.448,1.233,1.233,0,0,1-1.131,1.371,1.367,1.367,0,0,1-1.16-1.447A1.235,1.235,0,0,1,464.577,280.265Z" transform="translate(-431.312 -259.944)"/><path class="t" d="M466.474,276.923a1.988,1.988,0,0,1,1.186,1.588c.226,2.558-.735,7.421-.672,8.365.088,1.288,2.068,1.206,2.068,1.206" transform="translate(-431.634 -259.588)"/><path class="t" d="M471.807,293.334s-2.269,1.614-6-.214" transform="translate(-431.563 -261.311)"/><path class="t" d="M478.2,277.127a10.787,10.787,0,0,0-4.357.08" transform="translate(-432.417 -259.59)"/><path class="t" d="M461.764,277.2a10.8,10.8,0,0,1,4.353-.2" transform="translate(-431.133 -259.584)"/><path class="u" d="M482.737,268.553c1.158.735-1.4,10.793,3.976,10.2,3.5-5.3,4.159-11.974-.364-14.689-.857-4.726-5.483-6.713-11.385-6.531-3.406.105-7.178,3.189-11.044,3.216-6.043.045-7.905,3.681-5.764,7.023.931,1.453,4.1,1.741,5.476,1.246,1.92-.691,7.01,2.735,10.661,2.6C478.45,271.467,479.888,269.258,482.737,268.553Z" transform="translate(-430.658 -257.525)"/><path class="u" d="M485.536,263.428c1.222,4.118-1.669,9.5-6.34,10.365" transform="translate(-432.987 -258.153)"/><path class="p" d="M489.648,280.652a2.775,2.775,0,0,1,1.983-1.57c1.018-.187,2.844.376,2.767,3.246s-2.533,5.278-4.038,4.9S489.648,280.652,489.648,280.652Z" transform="translate(-434.076 -259.815)"/><path class="v" d="M490.888,282.3c.009-.359,1.446-1.987,2.611-.825" transform="translate(-434.231 -260.028)"/><path class="t" d="M487.505,288.431c-.774,3.538-1.811,5.285-2.707,6.331-2.07,2.418-5.378,5.067-13.43,5.922" transform="translate(-432.154 -260.812)"/><rect class="w" width="15.387" height="9.173" transform="translate(23.234 75.327)"/><rect class="f" width="12.947" height="7.718" transform="translate(23.72 75.565)"/><rect class="f" width="2.49" height="7.718" transform="translate(28.949 72.951)"/><rect class="j" width="3.423" height="4.081" transform="translate(31.229 77.342)"/><rect class="j" width="5.637" height="1.106" transform="translate(24.435 77.342)"/><rect class="j" width="5.637" height="1.105" transform="translate(24.435 79.344)"/><path class="x" d="M448.45,369.8s1.822-23.515.256-33.2" transform="translate(-429.717 -265.936)"/><path class="x" d="M508.149,368.155s-2.876-31.421,1.626-46.377" transform="translate(-435.97 -264.359)"/></g><g transform="translate(261.552 258.506)"><path class="y" d="M358.709,403.508l-1.2,173.08-12.235,1.433L331.065,434.654l1.115-31.146Z" transform="translate(-295.798 -276.303)"/><path class="y" d="M304.732,404.626l2.394,172.491,12.575.561L334.8,403.917Z" transform="translate(-292.997 -276.347)"/><path class="z" d="M302.548,473.964l54.817-.651-2.508-113.233,4.836-37.35c-7.936-4.42-17.93-6.752-29.237-6.752s-21.3,2.332-29.236,6.752l4.836,37.35Z" transform="translate(-292.624 -266.994)"/><line class="aa" x1="0.115" y1="86.116" transform="translate(18.261 207.128)"/><line class="aa" y1="86.991" x2="0.154" transform="translate(57.795 207.128)"/><path class="k" d="M319.687,317.512,333.094,343.3l13.1-25.734-5.044-1.776H325.388Z" transform="translate(-294.588 -266.974)"/><path class="ab" d="M334.78,343.515l12.761-9.7-1.553-4.28,4.727-3.141-1.627-8.1" transform="translate(-296.193 -267.24)"/><path class="ab" d="M332.851,343.515l-12.918-9.7,1.484-4.28-4.778-3.141,1.5-8.1" transform="translate(-294.264 -267.24)"/><path class="p" d="M342.132,314.2a9.32,9.32,0,1,1-18.6,0l1.74-20.009h15.119Z" transform="translate(-294.997 -264.677)"/><path class="p" d="M332.578,264.275c-3.25.079-13.042.425-13.212,13.114s2.273,17.341,3.816,19.238a11.778,11.778,0,0,0,6.31,4.526,3.976,3.976,0,0,0,6.174,0,11.778,11.778,0,0,0,6.31-4.526c1.542-1.9,3.986-6.55,3.815-19.238S335.829,264.354,332.578,264.275Z" transform="translate(-294.553 -261.494)"/><path class="p" d="M347.623,284.882a2.127,2.127,0,0,1,1.685-1.57c.995-.209,2.8.3,2.8,3.118s-2.356,5.245-3.844,4.909S347.481,285.635,347.623,284.882Z" transform="translate(-297.528 -263.515)"/><path class="y" d="M323.393,271.3c-1.155.693,1.046,10.8-4.214,10.084-2.758-3.7-3.3-12.975,1.893-15.392,1.483-4.97,6.088-4.765,11.143-4.828,12.039-.154,16.237,10.767,13.3,19.987-3.935-.15-2.892-4.924-4.648-5.946-1.735-1.01-5.152.562-8.734.339C328.052,275.291,326.174,272.065,323.393,271.3Z" transform="translate(-294.315 -261.163)"/><path class="p" d="M319.907,284.9A2.724,2.724,0,0,0,318,283.312c-.995-.209-2.8.3-2.8,3.118s2.357,5.245,3.844,4.909S319.907,284.9,319.907,284.9Z" transform="translate(-294.111 -263.515)"/><path class="k" d="M327.21,284.644a1.265,1.265,0,0,1,1.106,1.312,1.142,1.142,0,0,1-1.015,1.294,1.264,1.264,0,0,1-1.106-1.311A1.142,1.142,0,0,1,327.21,284.644Z" transform="translate(-295.28 -263.661)"/><path class="v" d="M318.931,286.488c0-.353-1.371-1.987-2.543-.874" transform="translate(-294.237 -263.723)"/><path class="v" d="M348.694,286.488c0-.353,1.371-1.987,2.543-.874" transform="translate(-297.673 -263.723)"/><path class="k" d="M340.076,284.644a1.265,1.265,0,0,0-1.105,1.312,1.141,1.141,0,0,0,1.015,1.294,1.265,1.265,0,0,0,1.106-1.311A1.143,1.143,0,0,0,340.076,284.644Z" transform="translate(-296.639 -263.661)"/><path class="t" d="M333.143,285c.573,1.374-.114,5.381-.458,6.467s1.259.917,1.259.917" transform="translate(-295.965 -263.699)"/><path class="t" d="M330.9,297.419s2.06,1.545,5.552-.057" transform="translate(-295.78 -265.013)"/><line class="aa" x1="3.804" y2="0.039" transform="translate(41.814 18.743)"/><line class="aa" x2="3.804" y2="0.039" transform="translate(30.054 18.743)"/><path class="ac" d="M325.756,265.589c-2.575,3.341-1.831,9.3,2.145,11.741" transform="translate(-295.074 -261.634)"/><path class="s" d="M325.948,301.95a10.6,10.6,0,0,0,4.244,2.3,3.977,3.977,0,0,0,6.175,0,10.668,10.668,0,0,0,3.863-1.974,15.36,15.36,0,0,0,5.193-8.925" transform="translate(-295.254 -264.586)"/><path class="q" d="M335.569,329.607l1.287,9.245-2.689,5.283L331.4,338.81l1.131-9.2-2.762-2.784,2.151-3.185,2.1,1.748,2.069-1.748,2.2,3.185Z" transform="translate(-295.66 -267.808)"/><path class="k" d="M334.492,324.586l6.069,3.068,4.908-11.038-2.007-.706Z" transform="translate(-296.163 -266.986)"/><path class="k" d="M333.114,324.6l-6.019,3.068-5.821-10.843,2-.706Z" transform="translate(-294.757 -267.008)"/><path class="g" d="M368.122,604.633c.055-.931.307-2.927-.85-3.591-.844-.485-4.051-.256-4.558-.41-.619-.189-3.891-4.549-4.538-5.355h-6.459l-3.038,2.993-.379,6.363Z" transform="translate(-297.631 -296.701)"/><path class="g" d="M300.415,604.633c0-.931-.133-2.927,1.063-3.591.873-.485,1.444-.256,1.962-.41.631-.189,4.162-4.549,4.857-5.355h6.459l2.86,2.993v6.363Z" transform="translate(-292.538 -296.701)"/><line class="w" x1="0.399" y2="130.915" transform="translate(37.969 75.823)"/><path class="z" d="M297.948,383.807c13.394.059,31.951-7.3,41.322-11.445l-19.016-4.693-1.693-4.372c-4.279.769-8.424,1.532-11.864,2.195-.7-9.47-1.1-20.388-1.256-25.555-.124-4.042.188-16.781-5.243-16.4-11,10.8-10.654,49.556-3.433,60.278Z" transform="translate(-291.601 -267.796)"/><path class="p" d="M317.785,364.738c-1.4-.6-7.969-3.827-9.943-4.726.2,3.733.437,7.594.72,11.17a30.271,30.271,0,0,1,3.63.568c1,.229,4.551.416,5.174.088a8.875,8.875,0,0,0,1.628-1.435Z" transform="translate(-293.328 -271.677)"/><path class="k" d="M316.776,364.028l-.74,8.871,3.469.667,2.172-8.287Z" transform="translate(-294.2 -272.104)"/><path class="ab" d="M307.021,372.467c-3.281,2.036-8.944,2.351-9.842,6.106-.7,2.932,6.78-4.115,8.84-1.914,2.114,2.259-1.458,6.015-2.187,9.022" transform="translate(-292.189 -273.002)"/><path class="z" d="M366.5,384.133l-.031-.01c-18.629.16-48.168-14.482-48.168-14.482l2.083-9.1s22.513,4.344,36.434,7.217c-.021-9.986-.724-22.277-.552-27.818.125-4.042-.187-16.781,5.244-16.4,12.061,6.641,11.478,50.548,5,60.587v0h0Z" transform="translate(-294.441 -267.796)"/><g transform="translate(53.477 88.359)"><path class="ad" d="M372.815,369.68a1.955,1.955,0,0,0,1.2-.8c.142-.234-4.315-2.869-4.315-2.869S371.716,369.32,372.815,369.68Z" transform="translate(-353.385 -360.675)"/><path class="p" d="M352.438,365.055c1.609-.7,10.092-4.939,10.465-5.012s6.079.851,6.079.851l5.345,4.64a12.228,12.228,0,0,1-2.82-.246,12.134,12.134,0,0,1-2.253-1.809l-2.956-.143,2.21,1.685s5.728,5.417,6.07,5.583-1.585.521-2.561.091a33.619,33.619,0,0,1-3.579-2.347s2.918,3.232,3.23,3.637a1.767,1.767,0,0,1-1.728.161l.151.3a4.814,4.814,0,0,1-2.688.135,4.876,4.876,0,0,1-2.108-1.063s-2.852-.007-3.329-.069a10.148,10.148,0,0,0-1.779.186v-.033c-2.676-.551-5.664-1.156-8.743-1.774Z" transform="translate(-351.443 -360.039)"/><path class="d" d="M366.493,365.793a17.2,17.2,0,0,1,2.136,1.72,15.384,15.384,0,0,1,1.7,1.975" transform="translate(-353.044 -360.651)"/><path class="d" d="M371.206,373.191c-1.081-.617-3.09-2.121-3.631-2.43a27.089,27.089,0,0,0-3.646-.9" transform="translate(-352.771 -361.085)"/></g><path class="k" d="M354.542,363.633l.654,7.375c-1.348-.273-2.734-.551-4.138-.834l-1.41-5.264Z" transform="translate(-297.775 -272.062)"/><path class="z" d="M349.2,370.15l-.025-7.3s-9.335,1.578-19.7,3.406C334.874,367.308,342.278,368.761,349.2,370.15Z" transform="translate(-295.629 -271.979)"/><path class="ab" d="M363.337,374.014s7.049,3.928,7.4,9.866c.206,3.479-5.8-4.787-5.8-4.787" transform="translate(-299.231 -273.166)"/></g><g transform="translate(444.955 270.567)"><path class="k" d="M542.23,285.137c1.175-1.881-.353-6.231-4.233-5.525s-2.586,2.234-5.643,1.763c-2.7-.415-4.094-3.479-7.877-1.293-2.964,1.712-2.021,4.02-4,6-1.763,1.763-5.436-.175-7.642,3.409-2.076,3.373,1.411,3.88.588,5.643s-4.935,2.234-5.643,5.643c-.741,3.564,2.469,3.174,2.234,5.056s-4.537-.277-4.82,4.82c-.118,2.116,2.469,3.762,2.469,3.762s-1.79,4.4,3.174,6c2.2.708,4.232-.823,6,.353s.353,2.587,3.645,2.939,11.287,2.234,14.344-3.174S542.23,285.137,542.23,285.137Z" transform="translate(-497.722 -275.154)"/><path class="k" d="M531.191,281.3c-1.338-2.14.4-7.092,4.817-6.289s2.944,2.542,6.423,2.007c3.067-.473,4.659-3.96,8.965-1.473,3.373,1.949,2.3,4.576,4.549,6.825,2.006,2.007,6.187-.2,8.7,3.88,2.364,3.838-1.606,4.415-.668,6.423s5.616,2.542,6.423,6.423c.843,4.055-2.811,3.613-2.542,5.753s5.163-.315,5.485,5.486c.134,2.409-2.81,4.282-2.81,4.282s2.038,5.005-3.612,6.824c-2.5.805-4.818-.937-6.825.4s-.4,2.944-4.147,3.345-12.845,2.542-16.324-3.613S531.191,281.3,531.191,281.3Z" transform="translate(-500.441 -274.66)"/><path class="u" d="M562.654,430.682c-1.239,11.059-4.953,35.888-6.451,49.6-1.272,11.638-1.281,23.425-2.467,32.8-3.054,24.126-5.423,31.858-6.907,56.12-.229,3.746-.173,4.794.152,6.538.12.642,1.451,2.085,2.48,3.2,1.554,1.677,4.247,2.822,4.247,4.788H539.028v-3.964c0-5.087.772-10.125.714-15.267l-.6-52.645L541.5,486l-.617-46.578.16-46.113c5.741,0,8.941.68,14.681.68C560.984,402.591,563.065,417.09,562.654,430.682Z" transform="translate(-501.321 -287.28)"/><path class="u" d="M515.819,421.4c-.944,15.712-1.394,39.929-2.529,61.32-.53,9.977-1.8,19.673-2.265,27-1.313,20.476-2.168,44.707-4.59,60.312a17.321,17.321,0,0,1-4.516,8.905c-.634.685-1.183,1.235-1.347,1.374-1.818,1.542-2.9,1.43-2.9,3.415h14.679v-5.43l2.323-13.386,10.106-54.924,3.593-26.058,8.138-52.036,2.8-38.581H523.171C519.345,399.417,516.245,407.126,515.819,421.4Z" transform="translate(-496.922 -287.28)"/><path class="k" d="M538.334,386.816c5.643,0,11.585-.832,17.228-.832a121.7,121.7,0,0,1-1.522-25.067c1.181-9.7,4.28-18.7,5.461-28.4-4.442-4.361-12.391-8.055-20.676-8.055s-16.234,3.694-20.677,8.055c1.182,9.7,4.28,18.7,5.461,28.4a121.639,121.639,0,0,1-1.484,25.067C527.767,385.984,532.691,386.816,538.334,386.816Z" transform="translate(-499.1 -279.957)"/><path class="ae" d="M582.4,381.078l-10.733,1.358c-1.56-7.256-11.355-26.321-14.783-33.926-1.62-3.592-4.292-13.309.492-15.6a6.4,6.4,0,0,1,6.246.592C572.095,340.488,581.843,371.492,582.4,381.078Z" transform="translate(-502.984 -280.796)"/><path class="g" d="M553.707,605.739c0-1.985-1.082-1.873-2.9-3.415-.164-.139-.713-.689-1.347-1.374-1.029-1.111.952,2.3.753,1.677H544.7l-5.674-2.319v5.43Zm0,0H539.028v.487h14.679Z" transform="translate(-501.321 -309.297)"/><path class="g" d="M497.673,605.739c0-1.985,1.082-1.873,2.9-3.415.164-.139.712-.689,1.347-1.374,1.029-1.111-.952,2.3-.753,1.677h5.512l5.674-2.319v5.43Zm0,0h14.679v.487H497.673Z" transform="translate(-496.922 -309.297)"/><path class="k" d="M513.426,421.4l-3.034,66.4,45.415.927L562.149,430c.412-13.592-1.67-28.091-6.927-36.694H520.778C516.951,399.417,513.852,407.126,513.426,421.4Z" transform="translate(-498.275 -287.28)"/><path class="p" d="M516.585,333.474c-6.891,6.064-8.749,31.8-11.431,49.4s-1.291,50.395-1.291,50.395l4.749,2.562s6.381-41.4,7.538-48.737,5.495-32.037,5.495-32.037A66.373,66.373,0,0,0,516.585,333.474Z" transform="translate(-497.542 -280.916)"/><g transform="translate(0 152.354)"><path class="af" d="M507.9,447.711c-.329,1.555-.508,4.931-.871,6.144-.119.4-.472,1.115-1.267,2.912a33.626,33.626,0,0,0-1.106,3.9,1.451,1.451,0,0,1-.886-1.062,7.784,7.784,0,0,1,.163-3.085c.3-.815.879-2.045.93-2.357-.912.777-1.725,1.641-1.725,1.641-.393,1.168-.751,2.716-1.013,3.584a19.538,19.538,0,0,1,.2,2.132,3.448,3.448,0,0,1,.409,1.746,2.941,2.941,0,0,1-1.077-.138.6.6,0,0,1-.116.488l-1.384-.916-.874-1.39-.6-.357-1.341-3.156-.51-1.652,1.591-3.72s3.424-4.893,3.846-5.664c.106-.195.436-.8.883-1.616Z" transform="translate(-496.833 -445.148)"/><path class="ag" d="M502.047,464.379l-.584-.572-.952-3.432,1.091-3.5" transform="translate(-497.224 -446.396)"/><path class="ag" d="M499.239,462.511l-.606-2.531.944-3.18" transform="translate(-497.025 -446.387)"/></g><path class="ae" d="M516.307,333.474c-6.891,6.064-8.749,31.8-11.431,49.4s-3.989,49.905-3.989,49.905l9.163,2.807s4.664-41.16,5.821-48.492,5.495-32.037,5.495-32.037A66.373,66.373,0,0,0,516.307,333.474Z" transform="translate(-497.264 -280.916)"/><path class="x" d="M507.763,387.82c2.533-.327,7.6-4.139,7.6-.981s-6.871,5.655-7.6,8.338,3.6-.163,5.395-.245" transform="translate(-497.987 -286.46)"/><path class="g" d="M529.241,352.663l25.993-6.633a2.093,2.093,0,0,1,2.538,1.507l8.977,35.177a2.093,2.093,0,0,1-1.506,2.539l-25.992,6.633a2.093,2.093,0,0,1-2.539-1.507L527.735,355.2A2.094,2.094,0,0,1,529.241,352.663Z" transform="translate(-500.113 -282.244)"/><path class="u" d="M543.392,368.961c-.4-.326-1.453.006-2-.526a34.7,34.7,0,0,0-3.092-2.866l-1.875,1.129c-1.2-.026-2.373-.182-2.373-.182-1.043-.656-2.3-1.63-3.051-2.137a19.435,19.435,0,0,0-1.194-1.777,5.5,5.5,0,0,0-.9-1.64,7.126,7.126,0,0,0-.141,1.206,8.268,8.268,0,0,0,.658,2.206,2.524,2.524,0,0,0-.715,1.338l1.142,1.878.781.42-.773.09c.281,1.511-.044,1.394,1.273,2.08l-.484.381c.343,1.582.22,1.193,1.885,1.554,0,0,1.419,1.957,6.56,1.96.51.207,3.761.881,4.623,1.231Z" transform="translate(-500.224 -283.839)"/><path class="u" d="M540.466,366.934a11.948,11.948,0,0,0-.912-1.441c-.114-.264-1.321-1.784-1.424-2.048-.15.158-1.161,1.144-1.138,1.2a14.964,14.964,0,0,1,.727,2.253Z" transform="translate(-501.104 -284.104)"/><path class="u" d="M537.973,363.164c-1.157-1.221-2.055-2.349-2.055-2.349a1.45,1.45,0,0,0-.339,1.34,11.873,11.873,0,0,0,1.256,2.2Z" transform="translate(-500.948 -283.824)"/><path class="ae" d="M582.5,390.612c-18.026-2.127-39.185-11.451-39.185-11.451l-.181-10.457c11.313,4.005,30.815,4.995,37.592,12.328Z" transform="translate(-501.758 -284.663)"/><path class="t" d="M529.471,364.78l.818,1.68,3.8,2.782" transform="translate(-500.305 -284.246)"/><path class="x" d="M568.587,374.607c6.129-2.462,13.3-2.533,9.15,1.262" transform="translate(-504.465 -285.106)"/><path class="u" d="M545.68,325.592c0,7.245-12.187,7.245-12.187,0V313.876c4.062,0,8.124-6.731,12.187-6.731Z" transform="translate(-500.732 -278.115)"/><path class="u" d="M537.838,282.044c-3.035-.065-12.183-.167-12.8,10.477s.82,14.251,1.614,16.247c.91,2.289,2.6,5.319,5.829,5.5,6.948.4,9.792-2.462,11.721-4.419,1.507-1.531,3.955-5.339,4.255-16S540.867,282.24,537.838,282.044Z" transform="translate(-499.817 -275.444)"/><path class="k" d="M529.92,284.944c-2.472-.329-5.327,5.769-5.029,11.474-1.619-9.6,2.072-16.636,12.722-16.314s12.968,9.822,10.9,17.932c-2.232-4.591-5.768-3.986-8.579-5.108C532.179,289.831,533.737,284.971,529.92,284.944Z" transform="translate(-499.779 -275.238)"/><path class="ah" d="M541.979,303.326c-1.388.354-2.344,1.3-2.135,2.123s1.5,1.2,2.892.842,2.344-1.306,2.135-2.124S543.367,302.972,541.979,303.326Z" transform="translate(-501.405 -277.695)"/><path class="k" d="M527.777,298.43a1.238,1.238,0,0,1,1.026,1.328,1.118,1.118,0,0,1-1.047,1.223,1.238,1.238,0,0,1-1.026-1.328A1.117,1.117,0,0,1,527.777,298.43Z" transform="translate(-500.013 -277.188)"/><path class="k" d="M538.806,298.9a1.238,1.238,0,0,0-1.137,1.236,1.116,1.116,0,0,0,.938,1.307,1.236,1.236,0,0,0,1.136-1.234A1.117,1.117,0,0,0,538.806,298.9Z" transform="translate(-501.176 -277.239)"/><path class="t" d="M530.761,295.855c2.327,2.572-.309,5.822-.426,7.771s3.54,1.4,3.54,1.4" transform="translate(-500.396 -276.915)"/><path class="t" d="M537.293,295.808s1.424-.976,3.717.2" transform="translate(-501.136 -276.869)"/><path class="t" d="M529.7,295.482s-1.335-1.094-3.72-.122" transform="translate(-499.933 -276.819)"/><g transform="translate(46.538 22.1)"><path class="u" d="M549.313,300.738a1.885,1.885,0,0,1,1.549-1.324c.887-.147,2.466.37,2.355,2.863s-2.282,4.548-3.585,4.194S549.159,301.4,549.313,300.738Z" transform="translate(-548.911 -299.391)"/><path class="ah" d="M550.648,306.842a.774.774,0,1,0,.74.806A.773.773,0,0,0,550.648,306.842Z" transform="translate(-549.01 -300.183)"/><path class="v" d="M550.218,302.2c.013-.312,1.287-1.7,2.281-.676" transform="translate(-549.05 -299.577)"/></g><path class="ai" d="M530.275,309.981c-.352-.17-.45-.869-.28-1.247s.886-.887,1.316-.714a1.63,1.63,0,0,0,1.155.05,1.871,1.871,0,0,1,1.348.471c.828.673.482.765,1.587,1.351a6.62,6.62,0,0,1-3.462.223" transform="translate(-500.352 -278.205)"/><path class="t" d="M531.035,312.229a4.481,4.481,0,0,0,3.794-.3" transform="translate(-500.471 -278.624)"/><path class="k" d="M530.742,297.97c-.786-.111-4.5-1.011-7.451-.059-.641,1.491.783,4.41,1.317,4.721a13.022,13.022,0,0,0,4.345.218c.96-.032,1.459-3.355,1.6-3.789a4.016,4.016,0,0,0,.1-.4,3.154,3.154,0,0,1,1.878,0,3.938,3.938,0,0,0,.1.4c.143.434.641,3.757,1.6,3.789.961.155,5.907.092,6.441-.218s1.957-3.23,1.316-4.721c-2.9-.934-8.549-.084-9.5.052a3.58,3.58,0,0,0-1.758.007Zm2.576.413c.552-.076,5.377-.837,7.818-.051.523,1.218-.64,3.6-1.076,3.855a23.557,23.557,0,0,1-5.26.178c-.785-.026-1.192-2.739-1.307-3.095a5.366,5.366,0,0,1-.175-.887Zm-3.443,0a5.524,5.524,0,0,1-.174.887c-.116.356-.524,3.069-1.308,3.095a8.4,8.4,0,0,1-3.164-.178c-.436-.254-1.6-2.637-1.076-3.855A11.845,11.845,0,0,1,529.875,298.383Z" transform="translate(-499.63 -277.087)"/><path class="t" d="M533.384,317.582c6.947.4,9.793-2.462,11.721-4.42" transform="translate(-500.721 -278.755)"/></g><g transform="translate(321.432 267.85)"><path class="p" d="M429.585,428.244c-1.924,49.545-5.785,101.2-7.08,148.77l-3.352,4.139-11.374,1.308c0-1.991,1.086-1.879,2.91-3.425.164-.139.715-.693,1.35-1.379a15,15,0,0,0,2.489-3.205c.12-40.051-7.573-94-10.643-137.155l-6.978-45.868H420.09C425.96,400.062,429.055,414.607,429.585,428.244Z" transform="translate(-362.681 -284.363)"/><path class="p" d="M373.712,428.244c.369,10.684,3.948,21.88,4.025,33.367.255,38.21,2.9,79.7,1.506,113.43l-8.656,4.231-.315,2.421,14.226-.317,2.147-3.261c3.92-45.471,8.4-92.891,11.581-140.818l2.419-45.868H383.366C377.459,400.062,374.3,414.607,373.712,428.244Z" transform="translate(-359.849 -284.363)"/><path class="k" d="M376.779,477.835a142.693,142.693,0,0,0,1.111,18.446c15.77,5.317,42.195,6.278,49.739,4.827s0-16.537-4.352-22.63S376.779,477.835,376.779,477.835Z" transform="translate(-360.538 -293.315)"/><path class="k" d="M402.362,384.087c-5.661,0-11.417,0-17.077,0a146.5,146.5,0,0,0,1.628-27.545c-1.947-3.022-3.872-4.512-4.6-7.176-.788-2.9.15-7.844.7-9.651-.479-2.378-1.1-6.825-1.4-9.271,4.457-4.375,12.431-8.081,20.743-8.081s16.287,3.706,20.744,8.081c-1.186,9.736-4.294,18.758-5.479,28.494-.287,8.934-.517,16.474.922,25.148C412.889,384.083,408.024,384.087,402.362,384.087Z" transform="translate(-361.056 -277.016)"/><path class="g" d="M391.9,276.825c2.5-5.124,13.063-6.285,17.623-4.273,9.366,4.131,8.129,10.84,14.108,14.161,2.819,1.566,6.012.117,10.414,3.084,3.306,2.227,1.794,6.365,4.356,9.231,2.009,2.246,6.255-.288,10.607,6.076,2.19,3.2,2.227,10.8-5.688,13.562-6.508,2.267-14.13-3.046-15.744-3.781-6.666-3.042-15.9,5.869-24.727-7.112-1.848-2.011-3.316.651-3.316.651-12.245,4.081-23.987-12.907-12.8-20.708.008-1.045.042-2.037.1-2.948C382.222,281.85,385.883,274.726,391.9,276.825Z" transform="translate(-361.122 -271.619)"/><path class="b" d="M448.745,325.394c-13.459,3.5-14.976-7.136-19.841-7.067" transform="translate(-366.085 -276.587)"/><path class="b" d="M385.827,291.171c-4.8,4.407-5.244,13.676.164,18.442" transform="translate(-361.104 -273.699)"/><path class="p" d="M410.172,321.555c-2.256,4.607-6.466,7.455-10.547,7.431-1.136-.006-1.635-4.548-1.635-7.431V309.8c4.076,0,8.151-6.752,12.226-6.752C410.216,307.45,410.172,317.155,410.172,321.555Z" transform="translate(-362.797 -274.962)"/><path class="p" d="M400.829,279.4c-2.976.064-11.94.35-12.1,10.8s1.4,13.925,2.265,15.847c.987,2.2,2.777,5.1,5.943,5.144,6.821.095,9.488-2.825,11.294-4.824,1.411-1.562,3.649-5.395,3.492-15.847S403.8,279.466,400.829,279.4Z" transform="translate(-361.811 -272.447)"/><path class="p" d="M412.813,297.281a1.846,1.846,0,0,1,1.461-1.362c.863-.181,2.431.258,2.427,2.705s-2.044,4.55-3.335,4.259S412.689,297.934,412.813,297.281Z" transform="translate(-364.346 -274.2)"/><path class="g" d="M396.555,283.221c-4.461-.218-9.59,6.515-7.81,10.806-1.99-9.386,1.329-16.383,11.774-16.516s14.178,8.454,12.5,16.484C412.995,293.993,399.734,291.762,396.555,283.221Z" transform="translate(-361.755 -272.246)"/><path class="ah" d="M414.358,304.728a.758.758,0,1,0-.759-.758A.76.76,0,0,0,414.358,304.728Z" transform="translate(-364.457 -274.979)"/><path class="ah" d="M405.724,300.121c-1.345.406-2.241,1.377-2,2.17s1.523,1.108,2.868.7,2.241-1.377,2-2.17S407.069,299.715,405.724,300.121Z" transform="translate(-363.402 -274.632)"/><path class="n" d="M391.6,295.936a1.211,1.211,0,0,1,1.061,1.257,1.1,1.1,0,0,1-.973,1.242,1.215,1.215,0,0,1-1.062-1.258A1.1,1.1,0,0,1,391.6,295.936Z" transform="translate(-362.014 -274.206)"/><path class="aj" d="M413.742,298.675c0-.307,1.189-1.725,2.206-.759" transform="translate(-364.472 -274.381)"/><path class="n" d="M402.427,295.936a1.212,1.212,0,0,0-1.061,1.257,1.1,1.1,0,0,0,.973,1.242,1.214,1.214,0,0,0,1.062-1.258A1.094,1.094,0,0,0,402.427,295.936Z" transform="translate(-363.156 -274.206)"/><path class="s" d="M394.461,293.29c2.388,2.421,1.115,7.368.786,8.412s1.208.878,1.208.878" transform="translate(-362.421 -273.924)"/><path class="s" d="M393.621,306.444s1.976,1.483,5.325-.055" transform="translate(-362.332 -275.317)"/><path class="s" d="M395.771,308.741a1.968,1.968,0,0,0,1.974-.021" transform="translate(-362.561 -275.565)"/><path class="s" d="M400.809,292.962s1.355-1.015,3.65.038" transform="translate(-363.097 -273.842)"/><path class="s" d="M393.354,292.962S392,291.946,389.7,293" transform="translate(-361.915 -273.842)"/><path class="s" d="M400.089,314.348c3.124-.218,7.152-1.745,10.286-6.447" transform="translate(-363.02 -275.478)"/><path class="g" d="M409.073,604.551c0-1.991,1.086-1.879,2.91-3.425.164-.139.715-.693,1.35-1.379,1.032-1.114-.954,2.307-.755,1.683h5.53L423.8,599.1v5.448Zm0,0H423.8v.489H409.073Z" transform="translate(-363.976 -306.451)"/><path class="p" d="M380.167,331.4c-6.681,6.084-7.559,31.9-9.576,49.562s-2.622,51.747-2.622,51.747l4.567,3.061c3.074-10.351,8.367-43.219,9.247-50.574s4.286-32.141,4.286-32.141A68.24,68.24,0,0,0,380.167,331.4Z" transform="translate(-359.604 -277.978)"/><path class="z" d="M380.534,331.4c-5.071,4.618-7.7,20.61-9.116,35.77l13.9.807a137.348,137.348,0,0,0,1.118-14.924A68.268,68.268,0,0,0,380.534,331.4Z" transform="translate(-359.971 -277.978)"/><g transform="translate(0 154.068)"><path class="p" d="M371.54,447.751c-.727,1.419-1.786,4.642-2.456,5.721-.218.352-.749.956-1.991,2.488A33.985,33.985,0,0,0,365,459.448a1.455,1.455,0,0,1-.579-1.26,7.824,7.824,0,0,1,.967-2.945c.509-.71,1.388-1.75,1.519-2.039-1.086.513-2.1,1.137-2.1,1.137-.687,1.028-1.44,2.433-1.922,3.205a19.561,19.561,0,0,1-.367,2.116,3.46,3.46,0,0,1-.063,1.8,2.952,2.952,0,0,1-1.006-.416.6.6,0,0,1-.24.441l-1.1-1.249-.482-1.575-.485-.5-.47-3.408-.062-1.735,2.516-3.184s4.6-3.84,5.21-4.477l1.279-1.332Z" transform="translate(-358.608 -444.025)"/><path class="d" d="M361.733,462.193l-.415-.706-.022-3.573,1.973-3.1" transform="translate(-358.894 -445.173)"/><path class="d" d="M359.5,459.643l.077-2.61,1.748-2.832" transform="translate(-358.703 -445.107)"/></g><path class="z" d="M427.162,421l-1.674,43.1H375.61l-.382-11.057L374.121,421c1.352-31.285,13.111-29.514,11.994-64.359-1.947-3.022-3.872-4.512-4.6-7.176-.788-2.9.15-7.844.7-9.651-.479-2.378-1.1-6.825-1.4-9.271a26.581,26.581,0,0,1,13.792-7.256c-3.161,6.087-3.677,19.86-2.693,30.267,6.667-12.564,11.386-19.558,16.816-30.175a26.638,26.638,0,0,1,13.572,7.165c-1.186,9.736-4.294,18.758-5.479,28.494C415.75,392.705,425.993,390.966,427.162,421Z" transform="translate(-360.258 -277.114)"/><path class="g" d="M385.933,605.17h-22.3a1.232,1.232,0,0,1,.861-1.58l5.376-2.1c.667,1.41,12.164,1.411,13.926.248l2.131-1.406Z" transform="translate(-359.137 -306.582)"/><g transform="translate(53.162 50.607)"><path class="ak" d="M435.237,338.753c4.551,7.985,13.891,29.69,15.052,36.843l-10.57,2.466c-2.307-7.079-14.053-25.092-18.261-32.326-1.988-3.417-5.66-12.837-1.122-15.618C425.46,326.977,432.025,333.117,435.237,338.753Z" transform="translate(-418.104 -328.357)"/><path class="z" d="M443.979,354.918l-14.13,6.2c-3.155-5.256-16.984-27.553-9.62-32.066C429.311,323.482,441.27,348.552,443.979,354.918Z" transform="translate(-418.097 -328.249)"/></g><path class="p" d="M449.523,379.841c-6.413,17.043-34.29,37.176-34.29,37.176l-5.209-1.475s24.345-34.261,28.636-40.348Z" transform="translate(-364.077 -282.636)"/><path class="ab" d="M393.979,354.459,409.7,340.965l-2.484-5.592,6.047-1.871.688-8.867" transform="translate(-362.37 -277.258)"/><path class="ab" d="M393.486,354.332l-3.694-17.678,2.485-2.876-2.929-2.676,4.745-7.659" transform="translate(-361.878 -277.131)"/><path class="ab" d="M393.351,357.861c.184,2.018,1.438,8.347,1.164,32.552-.275,24.329-7.725,34.9-3,78.55" transform="translate(-361.941 -280.792)"/><path class="z" d="M404.111,418.67l.181,5.97,19.716,2.894-.9-5.788S404.653,418.309,404.111,418.67Z" transform="translate(-363.448 -287.257)"/></g></g></svg>